<svg xmlns="http://www.w3.org/2000/svg" width="20" height="15.2" viewBox="0 0 20 15.2">
    <path d="M3.301 9.838A4.364 4.364 0 0 0 6.325 13.4c1.969.86 2.9 1.8 3.676 1.8s1.648-.822 3.616-1.684 1.443-1.123 1.907-3L10.001 13.2zm16.209-4.9L11.187.274a2.706 2.706 0 0 0-2.372 0L.489 4.936c-.652.365-.652.963 0 1.328l8.325 4.662a2.706 2.706 0 0 0 2.372 0l5.382-3.014-5.836-1.367a3.091 3.091 0 0 1-.731.086c-1.052 0-1.9-.506-1.9-1.131s.849-1.133 1.9-1.133a2.13 2.13 0 0 1 1.78.734l6.182 2.029 1.549-.867c.651-.363.651-.963 0-1.327zm-2.542 8.832c-.065.385 1.283 1.018 1.411-.107.579-5.072-.416-6.531-.416-6.531l-1.4.781s1.188 1.125.405 5.857z"/>
</svg>
